# xmcd
#
# Track frame offsets:
#	150
#	15227
#	30825
#	45225
#	63457
#	84230
#	103510
#	122710
#	143132
#	162900
#	187127
#
# Disc length: 2700 seconds
# Revision: 1
# Processed by: cddbd v1.5.2PL0 Copyright (c) Steve Scherf et al.
# Submitted via: dBpowerAMP V12.0
#
DISCID=7d0a8a0b
DTITLE=王菲 - 王菲 Disc 1 [dBS]
DYEAR=2001
DGENRE=Chinese Pop
TTITLE0=光之翼
TTITLE1=等等
TTITLE2=打錯了
TTITLE3=有時愛情徒有虛名
TTITLE4=流年
TTITLE5=夜會
TTITLE6=流浪的紅舞鞋
TTITLE7=白痴
TTITLE8=兩個人的聖經
TTITLE9=單行道
TTITLE10=流浪的紅舞鞋(鋼琴版)
EXTD=
EXTT0=
EXTT1=
EXTT2=
EXTT3=
EXTT4=
EXTT5=
EXTT6=
EXTT7=
EXTT8=
EXTT9=
EXTT10=
PLAYORDER=
